<?xml version="1.0" encoding="iso-8859-1"?>
<!-- Uploaded to: SVG Repo, www.svgrepo.com, Generator: SVG Repo Mixer Tools -->
<svg height="800px" width="800px" version="1.1" id="Layer_1" xmlns="http://www.w3.org/2000/svg" xmlns:xlink="http://www.w3.org/1999/xlink" 
	 viewBox="0 0 512 512" xml:space="preserve">
<path style="fill:#E0E0E2;" d="M380.121,93.031h-2.586C357.432,42.21,310.557,6.568,256,0.834
	c-5.112-0.538-10.285-0.833-15.515-0.833c-79.017,0-143.709,62.5-147.242,140.659C40.603,148.143,0,193.509,0,248.183
	c0,59.885,48.719,108.606,108.606,108.606h124.121v-23.273v-23.273V162.907c0-12.853,10.42-23.273,23.273-23.273
	c12.853,0,23.273,10.42,23.273,23.273v147.337v23.273v23.273h100.848C452.839,356.789,512,297.628,512,224.91
	S452.839,93.031,380.121,93.031z"/>
<path style="fill:#C6C5CA;" d="M240.485,0.001c-79.017,0-143.709,62.5-147.242,140.659C40.603,148.143,0,193.509,0,248.183
	c0,59.885,48.719,108.606,108.606,108.606h124.121v-23.273v-23.273V162.907c0-12.853,10.42-23.273,23.273-23.273V0.834
	C250.888,0.296,245.715,0.001,240.485,0.001z"/>
<path style="fill:#FFA733;" d="M309.363,402.448l-30.09,30.09v-75.75v-23.273v-23.273V162.907c0-12.853-10.42-23.273-23.273-23.273
	c-12.853,0-23.273,10.42-23.273,23.273v147.337v23.273v23.273v75.748l-30.09-30.09c-9.087-9.089-23.824-9.089-32.912,0
	s-9.089,23.824,0,32.912l69.814,69.815c0.545,0.543,1.116,1.058,1.71,1.545c0.27,0.222,0.559,0.417,0.839,0.627
	c0.327,0.245,0.65,0.501,0.988,0.728c0.337,0.225,0.689,0.422,1.036,0.63c0.304,0.182,0.605,0.374,0.915,0.541
	c0.352,0.188,0.718,0.351,1.081,0.521c0.326,0.154,0.649,0.318,0.982,0.456c0.349,0.144,0.709,0.262,1.067,0.389
	c0.36,0.129,0.718,0.268,1.083,0.38c0.352,0.105,0.715,0.186,1.074,0.276c0.379,0.095,0.754,0.202,1.136,0.278
	c0.408,0.081,0.825,0.13,1.24,0.189c0.338,0.048,0.673,0.113,1.012,0.146c0.756,0.074,1.522,0.116,2.298,0.116
	c0.776,0,1.539-0.042,2.295-0.116c0.349-0.034,0.692-0.099,1.041-0.15c0.403-0.059,0.811-0.105,1.207-0.185
	c0.396-0.078,0.787-0.188,1.178-0.287c0.344-0.087,0.692-0.163,1.03-0.265c0.382-0.115,0.757-0.261,1.134-0.397
	c0.338-0.123,0.683-0.233,1.013-0.371c0.352-0.146,0.694-0.318,1.04-0.483c0.343-0.163,0.69-0.315,1.026-0.493
	c0.329-0.177,0.647-0.38,0.97-0.574c0.329-0.197,0.666-0.385,0.984-0.597c0.355-0.237,0.694-0.504,1.039-0.763
	c0.262-0.197,0.537-0.383,0.791-0.591c0.594-0.489,1.167-1.004,1.713-1.548l69.815-69.815c9.089-9.087,9.089-23.824,0-32.912
	C333.188,393.359,318.452,393.358,309.363,402.448z"/>
<path style="fill:#FF7956;" d="M232.727,162.907v147.337v23.273v23.273v75.748l-30.09-30.09c-9.087-9.089-23.824-9.089-32.912,0
	c-9.089,9.087-9.089,23.824,0,32.912l69.814,69.815c0.545,0.543,1.116,1.058,1.71,1.545c0.27,0.222,0.559,0.417,0.839,0.627
	c0.327,0.245,0.65,0.501,0.988,0.728c0.337,0.223,0.689,0.422,1.036,0.63c0.304,0.182,0.605,0.374,0.915,0.541
	c0.352,0.188,0.718,0.351,1.081,0.521c0.326,0.154,0.649,0.318,0.982,0.456c0.349,0.144,0.709,0.262,1.067,0.391
	c0.36,0.129,0.718,0.268,1.083,0.38c0.354,0.105,0.715,0.186,1.074,0.276c0.379,0.096,0.754,0.202,1.136,0.278
	c0.408,0.081,0.825,0.13,1.24,0.189c0.338,0.048,0.673,0.113,1.012,0.146c0.756,0.074,1.522,0.116,2.298,0.116V139.634
	C243.147,139.634,232.727,150.054,232.727,162.907z"/>
</svg>